<?xml version="1.0" encoding="utf-8"?>
<!-- Generator: Adobe Illustrator 26.1.0, SVG Export Plug-In . SVG Version: 6.00 Build 0)  -->
<svg version="1.1" id="Layer_1" xmlns="http://www.w3.org/2000/svg" xmlns:xlink="http://www.w3.org/1999/xlink" x="0px" y="0px"
	 viewBox="0 0 600 600" style="enable-background:new 0 0 600 600;" xml:space="preserve">
<style type="text/css">
	.st0{opacity:0.7;fill:#F36C23;}
	.st1{fill:#F36C23;}
	.st2{fill:#B34626;}
</style>
<image style="overflow:visible;" width="3456" height="2304" xlink:href="D0A813A6A158AA33.jpg"  transform="matrix(0.3587 0 0 0.3587 -710.6011 -1301.9355)">
</image>
<rect x="-795.2" y="-1344.8" class="st0" width="1399.2" height="912.1"/>
<g id="HFvO5W.tif">
	
		<image style="overflow:visible;" width="384" height="348" id="Layer_0_00000028308441710635930470000006305997599043454619_" xlink:href="D0A813A6A158AA31.png"  transform="matrix(0.5 0 0 0.5 -1245.9152 -1538.0515)">
	</image>
</g>
<text transform="matrix(1 0 0 1 -516.9603 -792.0124)" style="fill:#FFFFFF; font-family:'BebasNeuePro-BoldItalic'; font-size:297.6045px;">GANADOR</text>
<text transform="matrix(1 0 0 1 -1049.2875 790.4855)" class="st1" style="font-family:'BebasNeuePro-BoldItalic'; font-size:631.5873px;">HR</text>
<g>
	<path class="st1" d="M889.5-397.9h68.7l-37.4,174.7h71.1l37.4-174.7h68.7l-91.4,429.2H938l41.1-193.1h-71.1L866.8,31.3h-68.7
		L889.5-397.9z"/>
	<g>
		<path class="st1" d="M1158.6-397.9h-45.3l-13.4,61.3h46.4c17.8,0,25.8,6.1,25.8,22.1c0,5.5-0.6,11.6-2.5,19.6l-7.4,33.1
			c-8.6,37.4-27.6,47.8-52.7,47.8h-36.9l-13.4,61.3h41.7c22.7,0,32.5,5.5,32.5,24.5c0,6.7-1.2,15.3-3.7,25.8l-16.6,78.5
			c-4.3,20.2-5.5,31.3-5.5,39.2c0,5.5,0.6,10.4,1.2,15.9h66.8c-0.6-3.7-1.2-7.4-1.2-11c0-10.4,3.1-23.3,6.1-38.6l15.9-75.4
			c3.1-12.9,4.3-24.5,4.3-35.6c0-27-9.8-46-31.3-53.3v-0.6c35.6-9.2,53.3-36.8,63.8-87.1l4.3-20.8c2.5-12.3,3.7-22.7,3.7-33.1
			C1241.4-373.4,1210.7-397.9,1158.6-397.9z"/>
	</g>
</g>
<g>
	<path class="st1" d="M162.4,96.2h65.2l-35.5,165.9h67.5l35.5-165.9h65.2l-86.8,407.6h-65.2l39-183.4h-67.5l-39,183.4H75.7
		L162.4,96.2z"/>
	<path class="st2" d="M445.7,96.2h-87.6l-12.5,58.2h88.4c16.9,0,24.5,5.8,24.5,21c0,5.2-0.6,11.1-2.3,18.6l-7,31.4
		c-8.2,35.5-26.2,45.4-50.1,45.4h-56.4l-12.5,58.2H391c21.5,0,30.9,5.2,30.9,23.3c0,6.4-1.2,14.6-3.5,24.5l-15.7,74.5
		c-4.1,19.2-5.2,29.7-5.2,37.3c0,5.2,0.6,9.9,1.2,15.1H462c-0.6-3.5-1.2-7-1.2-10.5c0-9.9,2.9-22.1,5.8-36.7l15.1-71.6
		c2.9-12.2,4.1-23.3,4.1-33.8c0-25.6-9.3-43.7-29.7-50.7V300c33.8-8.7,50.7-34.9,60.6-82.7l4.1-19.8c2.3-11.6,3.5-21.5,3.5-31.4
		C524.3,119.5,495.2,96.2,445.7,96.2z"/>
</g>
</svg>
