<?xml version="1.0" encoding="utf-8"?>
<!-- Generator: Adobe Illustrator 26.1.0, SVG Export Plug-In . SVG Version: 6.00 Build 0)  -->
<svg version="1.1" id="Layer_1" xmlns="http://www.w3.org/2000/svg" xmlns:xlink="http://www.w3.org/1999/xlink" x="0px" y="0px"
	 viewBox="0 0 600 600" style="enable-background:new 0 0 600 600;" xml:space="preserve">
<style type="text/css">
	.st0{opacity:0.7;fill:#F36C23;}
	.st1{fill:#F36C23;}
	.st2{fill:#F8A081;}
	.st3{fill:#F2692F;}
	.st4{fill:#B34626;}
</style>
<g>
	<path class="st2" d="M445.7,96.2h-87.6l-12.5,58.2h88.4c16.9,0,24.5,5.8,24.5,21c0,5.2-0.6,11.1-2.3,18.6l-7,31.4
		c-8.2,35.5-26.2,45.4-50.1,45.4h-56.4l-12.5,58.2H391c21.5,0,30.9,5.2,30.9,23.3c0,6.4-1.2,14.6-3.5,24.5l-15.7,74.5
		c-4.1,19.2-5.2,29.7-5.2,37.3c0,5.2,0.6,9.9,1.2,15.1H462c-0.6-3.5-1.2-7-1.2-10.5c0-9.9,2.9-22.1,5.8-36.7l15.1-71.6
		c2.9-12.2,4.1-23.3,4.1-33.8c0-25.6-9.3-43.7-29.7-50.7V300c33.8-8.7,50.7-34.9,60.6-82.7l4.1-19.8c2.3-11.6,3.5-21.5,3.5-31.4
		C524.3,119.5,495.2,96.2,445.7,96.2z"/>
	<path class="st3" d="M162.4,96.2h65.2l-35.5,165.9h67.5l35.5-165.9h65.2l-86.8,407.6h-65.2l39-183.4h-67.5l-39,183.4H75.7
		L162.4,96.2z"/>
</g>
</svg>
